{
  "accessors": [
    {
      "bufferView": 2,
      "componentType": 5126,
      "count": 16210,
      "max": [
        1.0973390340805054,
        1.1416280269622803,
        1.5381790399551392
      ],
      "min": [
        -1.0973390340805054,
        -1.1416280269622803,
        -0.10978300124406815
      ],
      "type": "VEC3"
    },
    {
      "bufferView": 2,
      "byteOffset": 194520,
      "componentType": 5126,
      "count": 16210,
      "max": [
        1.0,
        1.0,
        1.0
      ],
      "min": [
        -1.0,
        -1.0,
        -1.0
      ],
      "type": "VEC3"
    },
    {
      "bufferView": 1,
      "componentType": 5126,
      "count": 16210,
      "max": [
        0.9833189845085144,
        0.9988170266151428
      ],
      "min": [
        0.0012369999894872308,
        0.0017800000496208668
      ],
      "type": "VEC2"
    },
    {
      "bufferView": 0,
      "componentType": 5125,
      "count": 79104,
      "type": "SCALAR"
    },
    {
      "bufferView": 2,
      "byteOffset": 389040,
      "componentType": 5126,
      "count": 11141,
      "max": [
        1.254362940788269,
        1.39382004737854,
        4.495018005371094
      ],
      "min": [
        -1.103646993637085,
        -1.322227954864502,
        1.481950044631958
      ],
      "type": "VEC3"
    },
    {
      "bufferView": 2,
      "byteOffset": 522732,
      "componentType": 5126,
      "count": 11141,
      "max": [
        1.0,
        1.0,
        0.9999998807907104
      ],
      "min": [
        -1.0,
        -0.9999414682388306,
        -0.999971866607666
      ],
      "type": "VEC3"
    },
    {
      "bufferView": 3,
      "componentType": 5126,
      "count": 11141,
      "max": [
        1.0,
        0.9999998211860657,
        0.9999975562095642,
        1.0
      ],
      "min": [
        -1.0,
        -0.999999463558197,
        -0.9999157786369324,
        -1.0
      ],
      "type": "VEC4"
    },
    {
      "bufferView": 1,
      "byteOffset": 129680,
      "componentType": 5126,
      "count": 11141,
      "max": [
        0.9906179904937744,
        0.9992280006408691
      ],
      "min": [
        0.0008340000058524311,
        0.0010529999854043126
      ],
      "type": "VEC2"
    },
    {
      "bufferView": 0,
      "byteOffset": 316416,
      "componentType": 5125,
      "count": 59538,
      "type": "SCALAR"
    }
  ],
  "asset": {
    "extras": {
      "author": "THEwolf12z (https://sketchfab.com/fago1h1)",
      "license": "CC-BY-4.0 (http://creativecommons.org/licenses/by/4.0/)",
      "source": "https://sketchfab.com/3d-models/office-chair-b949e031feca40a6a45e33a3e649a276",
      "title": "Office chair"
    },
    "generator": "Sketchfab-17.1.0",
    "version": "2.0"
  },
  "bufferViews": [
    {
      "buffer": 0,
      "byteLength": 554568,
      "name": "floatBufferViews",
      "target": 34963
    },
    {
      "buffer": 0,
      "byteLength": 218808,
      "byteOffset": 554568,
      "byteStride": 8,
      "name": "floatBufferViews",
      "target": 34962
    },
    {
      "buffer": 0,
      "byteLength": 656424,
      "byteOffset": 773376,
      "byteStride": 12,
      "name": "floatBufferViews",
      "target": 34962
    },
    {
      "buffer": 0,
      "byteLength": 178256,
      "byteOffset": 1429800,
      "byteStride": 16,
      "name": "floatBufferViews",
      "target": 34962
    }
  ],
  "buffers": [
    {
      "byteLength": 1608056,
      "uri": "scene.bin"
    }
  ],
  "images": [
    {
      "uri": "textures/material_baseColor.png"
    },
    {
      "uri": "textures/material_metallicRoughness.png"
    },
    {
      "uri": "textures/seat_baseColor.png"
    },
    {
      "uri": "textures/seat_metallicRoughness.png"
    },
    {
      "uri": "textures/seat_normal.png"
    }
  ],
  "materials": [
    {
      "doubleSided": true,
      "name": "material",
      "pbrMetallicRoughness": {
        "baseColorTexture": {
          "index": 0
        },
        "metallicRoughnessTexture": {
          "index": 1
        }
      }
    },
    {
      "doubleSided": true,
      "name": "seat",
      "normalTexture": {
        "index": 4
      },
      "pbrMetallicRoughness": {
        "baseColorTexture": {
          "index": 2
        },
        "metallicRoughnessTexture": {
          "index": 3
        }
      }
    }
  ],
  "meshes": [
    {
      "name": "Object_0",
      "primitives": [
        {
          "attributes": {
            "NORMAL": 1,
            "POSITION": 0,
            "TEXCOORD_0": 2
          },
          "indices": 3,
          "material": 0,
          "mode": 4
        }
      ]
    },
    {
      "name": "Object_1",
      "primitives": [
        {
          "attributes": {
            "NORMAL": 5,
            "POSITION": 4,
            "TANGENT": 6,
            "TEXCOORD_0": 7
          },
          "indices": 8,
          "material": 1,
          "mode": 4
        }
      ]
    }
  ],
  "nodes": [
    {
      "children": [
        1
      ],
      "matrix": [
        1.0,
        0.0,
        0.0,
        0.0,
        0.0,
        2.220446049250313e-16,
        -1.0,
        0.0,
        0.0,
        1.0,
        2.220446049250313e-16,
        0.0,
        0.0,
        0.0,
        0.0,
        1.0
      ],
      "name": "Sketchfab_model"
    },
    {
      "children": [
        2,
        3
      ],
      "name": "OfficChair.obj.cleaner.materialmerger.gles"
    },
    {
      "mesh": 0,
      "name": "Object_2"
    },
    {
      "mesh": 1,
      "name": "Object_3"
    }
  ],
  "samplers": [
    {
      "magFilter": 9729,
      "minFilter": 9987,
      "wrapS": 10497,
      "wrapT": 10497
    }
  ],
  "scene": 0,
  "scenes": [
    {
      "name": "Sketchfab_Scene",
      "nodes": [
        0
      ]
    }
  ],
  "textures": [
    {
      "sampler": 0,
      "source": 0
    },
    {
      "sampler": 0,
      "source": 1
    },
    {
      "sampler": 0,
      "source": 2
    },
    {
      "sampler": 0,
      "source": 3
    },
    {
      "sampler": 0,
      "source": 4
    }
  ]
}
