{
	"asset":{
		"generator":"Khronos glTF Blender I/O v5.0.21",
		"version":"2.0"
	},
	"extensionsUsed":[
		"KHR_materials_emissive_strength",
		"KHR_materials_specular",
		"KHR_materials_ior"
	],
	"scene":0,
	"scenes":[
		{
			"name":"Scene",
			"nodes":[
				15
			]
		}
	],
	"nodes":[
		{
			"name":"bureau_sol_",
			"rotation":[
				-0.70710688829422,
				0,
				0,
				0.7071066498756409
			],
			"translation":[
				1847.2322998046875,
				82.7365951538086,
				-1467.62255859375
			]
		},
		{
			"mesh":0,
			"name":"bureaux_murs_baked_meeting_mur_0",
			"translation":[
				-9.822647552937269e-05,
				-1.879482442745939e-05,
				1.0244055374641903e-05
			]
		},
		{
			"children":[
				1
			],
			"name":"bureaux_murs",
			"rotation":[
				0,
				1,
				0,
				7.549789415861596e-08
			],
			"translation":[
				2151.85400390625,
				217.35891723632812,
				-966.3457641601562
			]
		},
		{
			"mesh":1,
			"name":"cadre_gris base_0"
		},
		{
			"children":[
				3
			],
			"name":"cadre",
			"rotation":[
				-0.70710688829422,
				0,
				0,
				0.7071066498756409
			],
			"translation":[
				-7.724364757537842,
				0,
				-2068.697021484375
			]
		},
		{
			"mesh":2,
			"name":"neo orange_02 - Defaultdcdc_0",
			"translation":[
				0.000244140625,
				-8.542613795725629e-05,
				-1.4749006368219852e-05
			]
		},
		{
			"children":[
				5
			],
			"name":"neo orange",
			"scale":[
				0.5512459874153137,
				0.5512460470199585,
				0.5512460470199585
			],
			"translation":[
				-36.8763427734375,
				-29.01689338684082,
				117.20110321044922
			]
		},
		{
			"children":[
				6
			],
			"name":"Group32990",
			"rotation":[
				-0.70710688829422,
				0,
				0,
				0.7071066498756409
			],
			"translation":[
				1836.1697998046875,
				233.28433227539062,
				-1470.9908447265625
			]
		},
		{
			"mesh":3,
			"name":"mur ext_noir_0",
			"translation":[
				-9.822649008128792e-05,
				-3.5360412766749505e-06,
				-1.56108544615563e-05
			]
		},
		{
			"children":[
				8
			],
			"name":"Object_15",
			"translation":[
				-1097.5472412109375,
				22.910152435302734,
				-506.0046081542969
			]
		},
		{
			"children":[
				9
			],
			"name":"mur ext",
			"rotation":[
				0,
				1,
				0,
				7.549789415861596e-08
			],
			"translation":[
				1287.295166015625,
				194.4486846923828,
				-1472.350341796875
			]
		},
		{
			"mesh":4,
			"name":"vitre_09 - Defaultscsc_0",
			"translation":[
				0.00013923889491707087,
				3.715056664077565e-06,
				-0.00027088786009699106
			]
		},
		{
			"children":[
				11
			],
			"name":"vitre",
			"rotation":[
				0,
				-0.7071066498756409,
				0,
				0.70710688829422
			],
			"translation":[
				1288.405517578125,
				175.81576538085938,
				-1796.279296875
			]
		},
		{
			"children":[
				0,
				2,
				4,
				7,
				10,
				12
			],
			"name":"RootNode"
		},
		{
			"children":[
				13
			],
			"name":"0c08d6ff2aa54a30b113a02fb8ae6b49.fbx",
			"rotation":[
				0.70710688829422,
				0,
				0,
				0.7071066498756409
			],
			"scale":[
				0.009999999776482582,
				0.010000000707805157,
				0.010000000707805157
			]
		},
		{
			"children":[
				14
			],
			"name":"Sketchfab_model",
			"rotation":[
				-0.70710688829422,
				0,
				0,
				0.7071066498756409
			]
		}
	],
	"materials":[
		{
			"doubleSided":true,
			"emissiveFactor":[
				1,
				1,
				1
			],
			"emissiveTexture":{
				"index":0
			},
			"extensions":{
				"KHR_materials_emissive_strength":{
					"emissiveStrength":1.0811060667037964
				},
				"KHR_materials_specular":{
					"specularColorFactor":[
						0.0,
						0.0,
						0.0
					]
				},
				"KHR_materials_ior":{
					"ior":1000
				}
			},
			"name":"baked_meeting_mur",
			"pbrMetallicRoughness":{
				"baseColorTexture":{
					"index":1
				},
				"metallicFactor":0
			}
		},
		{
			"doubleSided":true,
			"extensions":{
				"KHR_materials_specular":{
					"specularColorFactor":[
						0.0,
						0.0,
						0.0
					]
				},
				"KHR_materials_ior":{
					"ior":1000
				}
			},
			"name":"gris_base",
			"pbrMetallicRoughness":{
				"metallicFactor":0,
				"roughnessFactor":0.6000000238418579
			}
		},
		{
			"doubleSided":true,
			"emissiveFactor":[
				1,
				0.663675554725049,
				0.10838050088312157
			],
			"extensions":{
				"KHR_materials_emissive_strength":{
					"emissiveStrength":1.5818536840320263
				},
				"KHR_materials_specular":{
					"specularColorFactor":[
						0.0,
						0.0,
						0.0
					]
				},
				"KHR_materials_ior":{
					"ior":1000
				}
			},
			"name":"02_-_Defaultdcdc",
			"pbrMetallicRoughness":{
				"metallicFactor":0,
				"roughnessFactor":0.6000000238418579
			}
		},
		{
			"doubleSided":true,
			"extensions":{
				"KHR_materials_specular":{
					"specularColorFactor":[
						0.0,
						0.0,
						0.0
					]
				},
				"KHR_materials_ior":{
					"ior":1000
				}
			},
			"name":"noir",
			"pbrMetallicRoughness":{
				"baseColorFactor":[
					0.0049784379079937935,
					0.004814858548343182,
					0.004758541937917471,
					1
				],
				"metallicFactor":0,
				"roughnessFactor":0.8929713368415833
			}
		},
		{
			"alphaMode":"BLEND",
			"doubleSided":true,
			"extensions":{
				"KHR_materials_specular":{
					"specularColorFactor":[
						0.46078208088874817,
						0.46078208088874817,
						0.46078208088874817
					]
				},
				"KHR_materials_ior":{
					"ior":1000
				}
			},
			"name":"09_-_Defaultscsc",
			"pbrMetallicRoughness":{
				"baseColorFactor":[
					0.13900645077228546,
					0.1287296861410141,
					0.2169887125492096,
					0.07770789414644241
				],
				"metallicFactor":0,
				"roughnessFactor":0.07770789414644241
			}
		}
	],
	"meshes":[
		{
			"name":"bureaux_murs_baked_meeting_mur_0",
			"primitives":[
				{
					"attributes":{
						"POSITION":0,
						"NORMAL":1,
						"TEXCOORD_0":2
					},
					"indices":3,
					"material":0
				}
			]
		},
		{
			"name":"cadre_gris base_0",
			"primitives":[
				{
					"attributes":{
						"POSITION":4,
						"NORMAL":5
					},
					"indices":6,
					"material":1
				}
			]
		},
		{
			"name":"neo orange_02 - Defaultdcdc_0",
			"primitives":[
				{
					"attributes":{
						"POSITION":7,
						"NORMAL":8,
						"TEXCOORD_0":9
					},
					"indices":10,
					"material":2
				}
			]
		},
		{
			"name":"mur ext_noir_0",
			"primitives":[
				{
					"attributes":{
						"POSITION":11,
						"NORMAL":12,
						"TEXCOORD_0":13
					},
					"indices":14,
					"material":3
				}
			]
		},
		{
			"name":"vitre_09 - Defaultscsc_0",
			"primitives":[
				{
					"attributes":{
						"POSITION":15,
						"NORMAL":16,
						"TEXCOORD_0":17
					},
					"indices":18,
					"material":4
				}
			]
		}
	],
	"textures":[
		{
			"sampler":0,
			"source":0
		},
		{
			"sampler":0,
			"source":0
		}
	],
	"images":[
		{
			"mimeType":"image/png",
			"name":"baked_meeting_mur_diffuse",
			"uri":"baked_meeting_mur_diffuse.png"
		}
	],
	"accessors":[
		{
			"bufferView":0,
			"componentType":5126,
			"count":1548,
			"max":[
				865.5338134765625,
				222.05303955078125,
				1013.9967041015625
			],
			"min":[
				-368.2755126953125,
				-220.4542236328125,
				-1.9626808166503906
			],
			"type":"VEC3"
		},
		{
			"bufferView":1,
			"componentType":5126,
			"count":1548,
			"type":"VEC3"
		},
		{
			"bufferView":2,
			"componentType":5126,
			"count":1548,
			"type":"VEC2"
		},
		{
			"bufferView":3,
			"componentType":5123,
			"count":2358,
			"type":"SCALAR"
		},
		{
			"bufferView":4,
			"componentType":5126,
			"count":78,
			"max":[
				1299.47412109375,
				-84.37871551513672,
				354.3177795410156
			],
			"min":[
				1290.5654296875,
				-811.32958984375,
				-6.218940734863281
			],
			"type":"VEC3"
		},
		{
			"bufferView":5,
			"componentType":5126,
			"count":78,
			"type":"VEC3"
		},
		{
			"bufferView":6,
			"componentType":5123,
			"count":180,
			"type":"SCALAR"
		},
		{
			"bufferView":7,
			"componentType":5126,
			"count":682,
			"max":[
				1031.739501953125,
				966.6182250976562,
				164.64297485351562
			],
			"min":[
				-897.9471435546875,
				-507.35858154296875,
				-589.6893310546875
			],
			"type":"VEC3"
		},
		{
			"bufferView":8,
			"componentType":5126,
			"count":682,
			"type":"VEC3"
		},
		{
			"bufferView":9,
			"componentType":5126,
			"count":682,
			"type":"VEC2"
		},
		{
			"bufferView":10,
			"componentType":5123,
			"count":1356,
			"type":"SCALAR"
		},
		{
			"bufferView":11,
			"componentType":5126,
			"count":246,
			"max":[
				1105.396484375,
				251.1531524658203,
				1056.83740234375
			],
			"min":[
				-7.314399242401123,
				-220.4542236328125,
				-12.566851615905762
			],
			"type":"VEC3"
		},
		{
			"bufferView":12,
			"componentType":5126,
			"count":246,
			"type":"VEC3"
		},
		{
			"bufferView":13,
			"componentType":5126,
			"count":246,
			"type":"VEC2"
		},
		{
			"bufferView":14,
			"componentType":5123,
			"count":312,
			"type":"SCALAR"
		},
		{
			"bufferView":15,
			"componentType":5126,
			"count":90,
			"max":[
				183.16839599609375,
				171.86351013183594,
				1
			],
			"min":[
				-183.16839599609375,
				-171.86351013183594,
				0
			],
			"type":"VEC3"
		},
		{
			"bufferView":16,
			"componentType":5126,
			"count":90,
			"type":"VEC3"
		},
		{
			"bufferView":17,
			"componentType":5126,
			"count":90,
			"type":"VEC2"
		},
		{
			"bufferView":18,
			"componentType":5123,
			"count":288,
			"type":"SCALAR"
		}
	],
	"bufferViews":[
		{
			"buffer":0,
			"byteLength":18576,
			"byteOffset":0,
			"target":34962
		},
		{
			"buffer":0,
			"byteLength":18576,
			"byteOffset":18576,
			"target":34962
		},
		{
			"buffer":0,
			"byteLength":12384,
			"byteOffset":37152,
			"target":34962
		},
		{
			"buffer":0,
			"byteLength":4716,
			"byteOffset":49536,
			"target":34963
		},
		{
			"buffer":0,
			"byteLength":936,
			"byteOffset":54252,
			"target":34962
		},
		{
			"buffer":0,
			"byteLength":936,
			"byteOffset":55188,
			"target":34962
		},
		{
			"buffer":0,
			"byteLength":360,
			"byteOffset":56124,
			"target":34963
		},
		{
			"buffer":0,
			"byteLength":8184,
			"byteOffset":56484,
			"target":34962
		},
		{
			"buffer":0,
			"byteLength":8184,
			"byteOffset":64668,
			"target":34962
		},
		{
			"buffer":0,
			"byteLength":5456,
			"byteOffset":72852,
			"target":34962
		},
		{
			"buffer":0,
			"byteLength":2712,
			"byteOffset":78308,
			"target":34963
		},
		{
			"buffer":0,
			"byteLength":2952,
			"byteOffset":81020,
			"target":34962
		},
		{
			"buffer":0,
			"byteLength":2952,
			"byteOffset":83972,
			"target":34962
		},
		{
			"buffer":0,
			"byteLength":1968,
			"byteOffset":86924,
			"target":34962
		},
		{
			"buffer":0,
			"byteLength":624,
			"byteOffset":88892,
			"target":34963
		},
		{
			"buffer":0,
			"byteLength":1080,
			"byteOffset":89516,
			"target":34962
		},
		{
			"buffer":0,
			"byteLength":1080,
			"byteOffset":90596,
			"target":34962
		},
		{
			"buffer":0,
			"byteLength":720,
			"byteOffset":91676,
			"target":34962
		},
		{
			"buffer":0,
			"byteLength":576,
			"byteOffset":92396,
			"target":34963
		}
	],
	"samplers":[
		{
			"magFilter":9729,
			"minFilter":9987
		}
	],
	"buffers":[
		{
			"byteLength":92972,
			"uri":"scene1.bin"
		}
	]
}
