{
  "accessors": [
    {
      "bufferView": 2,
      "componentType": 5126,
      "count": 386,
      "max": [
        65.25180053710938,
        -60.7953987121582,
        75.23780059814453
      ],
      "min": [
        -57.40829849243164,
        -78.79350280761719,
        23.090700149536133
      ],
      "type": "VEC3"
    },
    {
      "bufferView": 2,
      "byteOffset": 4632,
      "componentType": 5126,
      "count": 386,
      "max": [
        0.9995903372764587,
        0.9676257371902466,
        0.9683757424354553
      ],
      "min": [
        -0.9995903372764587,
        -0.2453935593366623,
        -0.9686983823776245
      ],
      "type": "VEC3"
    },
    {
      "bufferView": 1,
      "componentType": 5126,
      "count": 386,
      "max": [
        0.9161999821662903,
        0.9115999937057495
      ],
      "min": [
        0.09099999815225601,
        0.3012999892234802
      ],
      "type": "VEC2"
    },
    {
      "bufferView": 0,
      "componentType": 5125,
      "count": 1152,
      "type": "SCALAR"
    },
    {
      "bufferView": 2,
      "byteOffset": 9264,
      "componentType": 5126,
      "count": 22610,
      "max": [
        98.69920349121094,
        37.90639877319336,
        104.47969818115234
      ],
      "min": [
        -90.83930206298828,
        -120.822998046875,
        13.156299591064453
      ],
      "type": "VEC3"
    },
    {
      "bufferView": 2,
      "byteOffset": 280584,
      "componentType": 5126,
      "count": 22610,
      "max": [
        0.9999911785125732,
        0.9999178647994995,
        0.999806821346283
      ],
      "min": [
        -0.9999905824661255,
        -0.9999942779541016,
        -0.9998413920402527
      ],
      "type": "VEC3"
    },
    {
      "bufferView": 1,
      "byteOffset": 3088,
      "componentType": 5126,
      "count": 22610,
      "max": [
        0.9879999756813049,
        0.9591000080108643
      ],
      "min": [
        0.012000000104308128,
        0.012000000104308128
      ],
      "type": "VEC2"
    },
    {
      "bufferView": 0,
      "byteOffset": 4608,
      "componentType": 5125,
      "count": 128880,
      "type": "SCALAR"
    },
    {
      "bufferView": 2,
      "byteOffset": 551904,
      "componentType": 5126,
      "count": 16406,
      "max": [
        176.3957977294922,
        -10.230899810791016,
        52.03150177001953
      ],
      "min": [
        -165.743896484375,
        -138.61959838867188,
        0.3212999999523163
      ],
      "type": "VEC3"
    },
    {
      "bufferView": 2,
      "byteOffset": 748776,
      "componentType": 5126,
      "count": 16406,
      "max": [
        0.9999346733093262,
        0.9997368454933167,
        0.9998800754547119
      ],
      "min": [
        -0.9999346733093262,
        -0.9987267851829529,
        -0.9999830722808838
      ],
      "type": "VEC3"
    },
    {
      "bufferView": 1,
      "byteOffset": 183968,
      "componentType": 5126,
      "count": 16406,
      "max": [
        0.9871000051498413,
        0.9879999756813049
      ],
      "min": [
        0.012000000104308128,
        0.012000000104308128
      ],
      "type": "VEC2"
    },
    {
      "bufferView": 0,
      "byteOffset": 520128,
      "componentType": 5125,
      "count": 93276,
      "type": "SCALAR"
    },
    {
      "bufferView": 2,
      "byteOffset": 945648,
      "componentType": 5126,
      "count": 6811,
      "max": [
        81.29940032958984,
        -61.84320068359375,
        80.37200164794922
      ],
      "min": [
        -73.44989776611328,
        -120.85929870605469,
        23.264699935913086
      ],
      "type": "VEC3"
    },
    {
      "bufferView": 2,
      "byteOffset": 1027380,
      "componentType": 5126,
      "count": 6811,
      "max": [
        0.9999971389770508,
        0.9999477863311768,
        0.9999794960021973
      ],
      "min": [
        -0.9999971389770508,
        -0.9999946355819702,
        -0.9997970461845398
      ],
      "type": "VEC3"
    },
    {
      "bufferView": 1,
      "byteOffset": 315216,
      "componentType": 5126,
      "count": 6811,
      "max": [
        0.9947999715805054,
        0.9660999774932861
      ],
      "min": [
        0.0,
        0.0
      ],
      "type": "VEC2"
    },
    {
      "bufferView": 0,
      "byteOffset": 893232,
      "componentType": 5125,
      "count": 38604,
      "type": "SCALAR"
    },
    {
      "bufferView": 2,
      "byteOffset": 1109112,
      "componentType": 5126,
      "count": 5154,
      "max": [
        87.2052001953125,
        -9.353899955749512,
        102.11090087890625
      ],
      "min": [
        -79.36199951171875,
        -94.81449890136719,
        0.27959999442100525
      ],
      "type": "VEC3"
    },
    {
      "bufferView": 2,
      "byteOffset": 1170960,
      "componentType": 5126,
      "count": 5154,
      "max": [
        0.9970954656600952,
        1.0,
        0.9994936585426331
      ],
      "min": [
        -0.9970954656600952,
        -0.9999966621398926,
        -0.9995177388191223
      ],
      "type": "VEC3"
    },
    {
      "bufferView": 1,
      "byteOffset": 369704,
      "componentType": 5126,
      "count": 5154,
      "max": [
        0.5547999739646912,
        0.948199987411499
      ],
      "min": [
        0.012000000104308128,
        0.652899980545044
      ],
      "type": "VEC2"
    },
    {
      "bufferView": 0,
      "byteOffset": 1047648,
      "componentType": 5125,
      "count": 29544,
      "type": "SCALAR"
    },
    {
      "bufferView": 2,
      "byteOffset": 1232808,
      "componentType": 5126,
      "count": 21112,
      "max": [
        92.49199676513672,
        15.916500091552734,
        101.89459991455078
      ],
      "min": [
        -84.6488037109375,
        -109.91390228271484,
        5.644700050354004
      ],
      "type": "VEC3"
    },
    {
      "bufferView": 2,
      "byteOffset": 1486152,
      "componentType": 5126,
      "count": 21112,
      "max": [
        0.9999991655349731,
        0.9997919201850891,
        0.9999549388885498
      ],
      "min": [
        -0.9999991655349731,
        -0.9999996423721313,
        -0.9999890327453613
      ],
      "type": "VEC3"
    },
    {
      "bufferView": 1,
      "byteOffset": 410936,
      "componentType": 5126,
      "count": 21112,
      "max": [
        0.9879999756813049,
        0.8618999719619751
      ],
      "min": [
        0.012000000104308128,
        0.012000000104308128
      ],
      "type": "VEC2"
    },
    {
      "bufferView": 0,
      "byteOffset": 1165824,
      "componentType": 5125,
      "count": 119760,
      "type": "SCALAR"
    },
    {
      "bufferView": 2,
      "byteOffset": 1739496,
      "componentType": 5126,
      "count": 13448,
      "max": [
        100.73909759521484,
        141.4029998779297,
        135.98219299316406
      ],
      "min": [
        -92.93840026855469,
        -84.30909729003906,
        0.358599990606308
      ],
      "type": "VEC3"
    },
    {
      "bufferView": 2,
      "byteOffset": 1900872,
      "componentType": 5126,
      "count": 13448,
      "max": [
        0.9999995231628418,
        0.999994158744812,
        0.9999953508377075
      ],
      "min": [
        -1.0,
        -0.9996487498283386,
        -0.9999877214431763
      ],
      "type": "VEC3"
    },
    {
      "bufferView": 1,
      "byteOffset": 579832,
      "componentType": 5126,
      "count": 13448,
      "max": [
        0.8032000064849854,
        0.9879999756813049
      ],
      "min": [
        0.012000000104308128,
        0.012000000104308128
      ],
      "type": "VEC2"
    },
    {
      "bufferView": 0,
      "byteOffset": 1644864,
      "componentType": 5125,
      "count": 75672,
      "type": "SCALAR"
    },
    {
      "bufferView": 2,
      "byteOffset": 2062248,
      "componentType": 5126,
      "count": 6727,
      "max": [
        92.310302734375,
        -59.3838996887207,
        73.80480194091797
      ],
      "min": [
        -73.67070007324219,
        -117.50279998779297,
        15.492400169372559
      ],
      "type": "VEC3"
    },
    {
      "bufferView": 2,
      "byteOffset": 2142972,
      "componentType": 5126,
      "count": 6727,
      "max": [
        0.9999260902404785,
        0.9999598264694214,
        0.9999076128005981
      ],
      "min": [
        -0.9999874830245972,
        -0.9996228814125061,
        -0.998274564743042
      ],
      "type": "VEC3"
    },
    {
      "bufferView": 1,
      "byteOffset": 687416,
      "componentType": 5126,
      "count": 6727,
      "max": [
        0.9401000142097473,
        0.8102999925613403
      ],
      "min": [
        0.012000000104308128,
        0.012000000104308128
      ],
      "type": "VEC2"
    },
    {
      "bufferView": 0,
      "byteOffset": 1947552,
      "componentType": 5125,
      "count": 37884,
      "type": "SCALAR"
    }
  ],
  "asset": {
    "extras": {
      "author": "AVILOV (https://sketchfab.com/avilov)",
      "license": "CC-BY-4.0 (http://creativecommons.org/licenses/by/4.0/)",
      "source": "https://sketchfab.com/3d-models/oculus-quest-3-f4b794fc21784cd2a78392af05e0b597",
      "title": "Oculus Quest 3"
    },
    "generator": "Sketchfab-16.99.0",
    "version": "2.0"
  },
  "bufferViews": [
    {
      "buffer": 0,
      "byteLength": 2099088,
      "name": "floatBufferViews",
      "target": 34963
    },
    {
      "buffer": 0,
      "byteLength": 741232,
      "byteOffset": 2099088,
      "byteStride": 8,
      "name": "floatBufferViews",
      "target": 34962
    },
    {
      "buffer": 0,
      "byteLength": 2223696,
      "byteOffset": 2840320,
      "byteStride": 12,
      "name": "floatBufferViews",
      "target": 34962
    }
  ],
  "buffers": [
    {
      "byteLength": 5064016,
      "uri": "scene.bin"
    }
  ],
  "extensionsUsed": [
    "KHR_materials_specular",
    "KHR_materials_clearcoat"
  ],
  "images": [
    {
      "uri": "textures/wire_056035148_baseColor.jpeg"
    },
    {
      "uri": "textures/wire_085028177_baseColor.jpeg"
    },
    {
      "uri": "textures/wire_126042025_baseColor.jpeg"
    },
    {
      "uri": "textures/wire_177161249_baseColor.jpeg"
    },
    {
      "uri": "textures/wire_194045245_baseColor.jpeg"
    }
  ],
  "materials": [
    {
      "doubleSided": true,
      "extensions": {
        "KHR_materials_specular": {
          "specularColorFactor": [
            1.0,
            1.0,
            1.0
          ],
          "specularFactor": 0.5043824895466348
        }
      },
      "name": "wire_056035148",
      "pbrMetallicRoughness": {
        "baseColorTexture": {
          "index": 0
        },
        "metallicFactor": 0.05333349587351123,
        "roughnessFactor": 0.35
      }
    },
    {
      "doubleSided": true,
      "name": "wire_085028177",
      "pbrMetallicRoughness": {
        "baseColorTexture": {
          "index": 1
        },
        "metallicFactor": 0.0,
        "roughnessFactor": 0.6
      }
    },
    {
      "doubleSided": true,
      "extensions": {
        "KHR_materials_clearcoat": {
          "clearcoatFactor": 1.0,
          "clearcoatRoughnessFactor": 0.3154295327376236
        },
        "KHR_materials_specular": {
          "specularColorFactor": [
            1.0,
            1.0,
            1.0
          ],
          "specularFactor": 0.20571491265497188
        }
      },
      "name": "wire_126042025",
      "pbrMetallicRoughness": {
        "baseColorTexture": {
          "index": 2
        },
        "metallicFactor": 0.0,
        "roughnessFactor": 0.278857992710073
      }
    },
    {
      "alphaMode": "BLEND",
      "doubleSided": true,
      "extensions": {
        "KHR_materials_clearcoat": {
          "clearcoatFactor": 1.0,
          "clearcoatRoughnessFactor": 0.04
        }
      },
      "name": "wire_160123147",
      "pbrMetallicRoughness": {
        "baseColorFactor": [
          1.0,
          1.0,
          1.0,
          0.608001852958028
        ],
        "metallicFactor": 0.0,
        "roughnessFactor": 0.0
      }
    },
    {
      "doubleSided": true,
      "name": "wire_177161249",
      "pbrMetallicRoughness": {
        "baseColorTexture": {
          "index": 3
        },
        "metallicFactor": 0.0,
        "roughnessFactor": 0.6
      }
    },
    {
      "doubleSided": true,
      "name": "wire_194045245",
      "pbrMetallicRoughness": {
        "baseColorTexture": {
          "index": 4
        },
        "metallicFactor": 0.0,
        "roughnessFactor": 0.6
      }
    }
  ],
  "meshes": [
    {
      "name": "Object_0",
      "primitives": [
        {
          "attributes": {
            "NORMAL": 1,
            "POSITION": 0,
            "TEXCOORD_0": 2
          },
          "indices": 3,
          "material": 1,
          "mode": 4
        }
      ]
    },
    {
      "name": "Object_1",
      "primitives": [
        {
          "attributes": {
            "NORMAL": 5,
            "POSITION": 4,
            "TEXCOORD_0": 6
          },
          "indices": 7,
          "material": 2,
          "mode": 4
        }
      ]
    },
    {
      "name": "Object_2",
      "primitives": [
        {
          "attributes": {
            "NORMAL": 9,
            "POSITION": 8,
            "TEXCOORD_0": 10
          },
          "indices": 11,
          "material": 0,
          "mode": 4
        }
      ]
    },
    {
      "name": "Object_3",
      "primitives": [
        {
          "attributes": {
            "NORMAL": 13,
            "POSITION": 12,
            "TEXCOORD_0": 14
          },
          "indices": 15,
          "material": 3,
          "mode": 4
        }
      ]
    },
    {
      "name": "Object_4",
      "primitives": [
        {
          "attributes": {
            "NORMAL": 17,
            "POSITION": 16,
            "TEXCOORD_0": 18
          },
          "indices": 19,
          "material": 5,
          "mode": 4
        }
      ]
    },
    {
      "name": "Object_5",
      "primitives": [
        {
          "attributes": {
            "NORMAL": 21,
            "POSITION": 20,
            "TEXCOORD_0": 22
          },
          "indices": 23,
          "material": 5,
          "mode": 4
        }
      ]
    },
    {
      "name": "Object_6",
      "primitives": [
        {
          "attributes": {
            "NORMAL": 25,
            "POSITION": 24,
            "TEXCOORD_0": 26
          },
          "indices": 27,
          "material": 4,
          "mode": 4
        }
      ]
    },
    {
      "name": "Object_7",
      "primitives": [
        {
          "attributes": {
            "NORMAL": 29,
            "POSITION": 28,
            "TEXCOORD_0": 30
          },
          "indices": 31,
          "material": 4,
          "mode": 4
        }
      ]
    }
  ],
  "nodes": [
    {
      "children": [
        1
      ],
      "matrix": [
        0.0011111111380159855,
        0.0,
        0.0,
        0.0,
        0.0,
        2.4671623366856143e-19,
        -0.0011111111380159855,
        0.0,
        0.0,
        0.0011111111380159855,
        2.4671623366856143e-19,
        0.0,
        0.0,
        0.0,
        0.0,
        1.0
      ],
      "name": "Sketchfab_model"
    },
    {
      "children": [
        2,
        3,
        4,
        5,
        6,
        7,
        8,
        9
      ],
      "name": "oculus quest 3.obj.cleaner.materialmerger.gles"
    },
    {
      "mesh": 0,
      "name": "Object_2"
    },
    {
      "mesh": 1,
      "name": "Object_3"
    },
    {
      "mesh": 2,
      "name": "Object_4"
    },
    {
      "mesh": 3,
      "name": "Object_5"
    },
    {
      "mesh": 4,
      "name": "Object_6"
    },
    {
      "mesh": 5,
      "name": "Object_7"
    },
    {
      "mesh": 6,
      "name": "Object_8"
    },
    {
      "mesh": 7,
      "name": "Object_9"
    }
  ],
  "samplers": [
    {
      "magFilter": 9729,
      "minFilter": 9987,
      "wrapS": 10497,
      "wrapT": 10497
    }
  ],
  "scene": 0,
  "scenes": [
    {
      "name": "Sketchfab_Scene",
      "nodes": [
        0
      ]
    }
  ],
  "textures": [
    {
      "sampler": 0,
      "source": 0
    },
    {
      "sampler": 0,
      "source": 1
    },
    {
      "sampler": 0,
      "source": 2
    },
    {
      "sampler": 0,
      "source": 3
    },
    {
      "sampler": 0,
      "source": 4
    }
  ]
}
