{
  "accessors": [
    {
      "bufferView": 2,
      "componentType": 5126,
      "count": 1252,
      "max": [
        2.7656800746917725,
        22.7362003326416,
        6.303030014038086
      ],
      "min": [
        -3.19566011428833,
        6.237150192260742,
        -6.286730766296387
      ],
      "type": "VEC3"
    },
    {
      "bufferView": 2,
      "byteOffset": 15024,
      "componentType": 5126,
      "count": 1252,
      "max": [
        1.0,
        0.9999911785125732,
        0.9997681379318237
      ],
      "min": [
        -1.0,
        -0.9999917149543762,
        -0.9994790554046631
      ],
      "type": "VEC3"
    },
    {
      "bufferView": 1,
      "componentType": 5126,
      "count": 1252,
      "max": [
        1.3264100551605225,
        0.9888241291046143
      ],
      "min": [
        1.0122400522232056,
        0.005700999870896339
      ],
      "type": "VEC2"
    },
    {
      "bufferView": 0,
      "componentType": 5125,
      "count": 6000,
      "type": "SCALAR"
    },
    {
      "bufferView": 2,
      "byteOffset": 30048,
      "componentType": 5126,
      "count": 2060,
      "max": [
        7.399391174316406,
        22.07819938659668,
        7.260610103607178
      ],
      "min": [
        -7.399371147155762,
        0.04673999920487404,
        -7.260581016540527
      ],
      "type": "VEC3"
    },
    {
      "bufferView": 2,
      "byteOffset": 54768,
      "componentType": 5126,
      "count": 2060,
      "max": [
        1.0,
        1.0,
        1.0
      ],
      "min": [
        -1.0,
        -1.0,
        -1.0
      ],
      "type": "VEC3"
    },
    {
      "bufferView": 1,
      "byteOffset": 10016,
      "componentType": 5126,
      "count": 2060,
      "max": [
        0.9943150281906128,
        0.990032970905304
      ],
      "min": [
        0.005115000065416098,
        0.005115000065416098
      ],
      "type": "VEC2"
    },
    {
      "bufferView": 0,
      "byteOffset": 24000,
      "componentType": 5125,
      "count": 9936,
      "type": "SCALAR"
    },
    {
      "bufferView": 2,
      "byteOffset": 79488,
      "componentType": 5126,
      "count": 5244,
      "max": [
        3.734250068664551,
        13.670700073242188,
        6.143179893493652
      ],
      "min": [
        -4.134260177612305,
        4.575739860534668,
        -6.324951171875
      ],
      "type": "VEC3"
    },
    {
      "bufferView": 2,
      "byteOffset": 142416,
      "componentType": 5126,
      "count": 5244,
      "max": [
        1.0,
        0.9999405145645142,
        0.9999982714653015
      ],
      "min": [
        -1.0,
        -0.9999864101409912,
        -0.999998152256012
      ],
      "type": "VEC3"
    },
    {
      "bufferView": 1,
      "byteOffset": 26496,
      "componentType": 5126,
      "count": 5244,
      "max": [
        1.9962400197982788,
        0.9959210157394409
      ],
      "min": [
        1.298949956893921,
        0.008422000333666801
      ],
      "type": "VEC2"
    },
    {
      "bufferView": 0,
      "byteOffset": 63744,
      "componentType": 5125,
      "count": 28800,
      "type": "SCALAR"
    }
  ],
  "asset": {
    "extras": {
      "author": "local.yany (https://sketchfab.com/local.yany)",
      "license": "CC-BY-4.0 (http://creativecommons.org/licenses/by/4.0/)",
      "source": "https://sketchfab.com/3d-models/headphones-on-stand-9c3d8831f571446ebec8dc250a2630f5",
      "title": "Headphones on Stand"
    },
    "generator": "Sketchfab-16.16.0",
    "version": "2.0"
  },
  "bufferViews": [
    {
      "buffer": 0,
      "byteLength": 178944,
      "name": "floatBufferViews",
      "target": 34963
    },
    {
      "buffer": 0,
      "byteLength": 68448,
      "byteOffset": 178944,
      "byteStride": 8,
      "name": "floatBufferViews",
      "target": 34962
    },
    {
      "buffer": 0,
      "byteLength": 205344,
      "byteOffset": 247392,
      "byteStride": 12,
      "name": "floatBufferViews",
      "target": 34962
    }
  ],
  "buffers": [
    {
      "byteLength": 452736,
      "uri": "scene.bin"
    }
  ],
  "images": [
    {
      "uri": "textures/Headband_baseColor.jpeg"
    },
    {
      "uri": "textures/Stand_baseColor.jpeg"
    }
  ],
  "materials": [
    {
      "doubleSided": true,
      "name": "Headband",
      "pbrMetallicRoughness": {
        "baseColorTexture": {
          "index": 0
        },
        "metallicFactor": 0.0,
        "roughnessFactor": 0.06285428679401694
      }
    },
    {
      "doubleSided": true,
      "name": "Stand",
      "pbrMetallicRoughness": {
        "baseColorTexture": {
          "index": 1
        },
        "metallicFactor": 0.0,
        "roughnessFactor": 0.2152357035754776
      }
    },
    {
      "doubleSided": true,
      "name": "Earpieces",
      "pbrMetallicRoughness": {
        "baseColorTexture": {
          "index": 0
        },
        "metallicFactor": 0.0,
        "roughnessFactor": 0.2761882702880619
      }
    }
  ],
  "meshes": [
    {
      "name": "HPM Headphones on Stand.Shape_Headband_0",
      "primitives": [
        {
          "attributes": {
            "NORMAL": 1,
            "POSITION": 0,
            "TEXCOORD_0": 2
          },
          "indices": 3,
          "material": 0,
          "mode": 4
        }
      ]
    },
    {
      "name": "HPM Headphones on Stand.Shape_Stand_0",
      "primitives": [
        {
          "attributes": {
            "NORMAL": 5,
            "POSITION": 4,
            "TEXCOORD_0": 6
          },
          "indices": 7,
          "material": 1,
          "mode": 4
        }
      ]
    },
    {
      "name": "HPM Headphones on Stand.Shape_Earpieces_0",
      "primitives": [
        {
          "attributes": {
            "NORMAL": 9,
            "POSITION": 8,
            "TEXCOORD_0": 10
          },
          "indices": 11,
          "material": 2,
          "mode": 4
        }
      ]
    }
  ],
  "nodes": [
    {
      "children": [
        1
      ],
      "matrix": [
        1.0,
        0.0,
        0.0,
        0.0,
        0.0,
        2.220446049250313e-16,
        -1.0,
        0.0,
        0.0,
        1.0,
        2.220446049250313e-16,
        0.0,
        0.0,
        0.0,
        0.0,
        1.0
      ],
      "name": "Sketchfab_model"
    },
    {
      "children": [
        2
      ],
      "matrix": [
        0.009999999776482582,
        0.0,
        0.0,
        0.0,
        0.0,
        0.0,
        0.009999999776482582,
        0.0,
        0.0,
        -0.009999999776482582,
        0.0,
        0.0,
        0.0,
        0.0,
        0.0,
        1.0
      ],
      "name": "Headphones on Stand.fbx"
    },
    {
      "children": [
        3
      ],
      "name": "RootNode"
    },
    {
      "children": [
        4
      ],
      "name": "HPM Headphones on Stand"
    },
    {
      "children": [
        5,
        6,
        7
      ],
      "name": "HPM Headphones on Stand.Shape"
    },
    {
      "mesh": 0,
      "name": "HPM Headphones on Stand.Shape_Headband_0"
    },
    {
      "mesh": 1,
      "name": "HPM Headphones on Stand.Shape_Stand_0"
    },
    {
      "mesh": 2,
      "name": "HPM Headphones on Stand.Shape_Earpieces_0"
    }
  ],
  "samplers": [
    {
      "magFilter": 9729,
      "minFilter": 9987,
      "wrapS": 10497,
      "wrapT": 10497
    }
  ],
  "scene": 0,
  "scenes": [
    {
      "name": "Sketchfab_Scene",
      "nodes": [
        0
      ]
    }
  ],
  "textures": [
    {
      "sampler": 0,
      "source": 0
    },
    {
      "sampler": 0,
      "source": 1
    }
  ]
}
